:SAMPLES-PER-SECOND 30
:FULLY-SPECIFIED
:DEGREES
424
root  -4.67432 34.9093 1.35873 -156.569 -87.9819 152.595
RightUpLeg  -28.7856 -31.7282 -6.56844
RightLeg  63.2953 -8.54284 -18.3971
RightFoot  -13.2169 0.0675713 9.36009
RightToes  -1.33073e-015 0 -3.6325e-017
Spine  28.5124 0.174823 -0.829073
Spine1  -16.9498 0.0933016 -1.08631
HEad  -13.8221 7.6575 -2.39373
LeftShoulder1  -0.0826822 4.48622 -0.687048
LeftArm  -60.3045 -4.69889 -19.4948
LeftForeArm  70.9045 -74.841 -127.336
LeftHand  0.402022 6.58587 36.5953
RightShoulder  0.156186 -2.27549 4.33393
RightArm  -65.9103 -6.42347 16.0386
RightForeArm  33.9304 77.8552 90.2137
RightHand  -2.27194 1.67847 -36.3589
LeftUpLeg  -25.3487 33.6893 5.02284
LeftLeg  57.9791 3.20188 6.0691
LeftFoot  -22.6281 -0.779049 -9.23409
LeftToes  -4.0021e-011 8.38769e-011 -3.99229e-011
425
root  -5.09902 37.0685 1.61814 -174.412 -87.5616 172.014
RightUpLeg  -24.1295 -30.8823 -4.89457
RightLeg  50.984 -12.5747 -16.4405
RightFoot  -10.9874 -0.105327 5.73713
RightToes  -1.33073e-015 0 -3.6325e-017
Spine  24.8068 0.395296 -0.323704
Spine1  -17.0009 0.380253 -0.135009
HEad  -10.0133 8.02655 -2.03097
LeftShoulder1  0.329095 1.60184 -10.6178
LeftArm  -53.9663 1.27591 -21.5437
LeftForeArm  76.9865 -73.6141 -132.575
LeftHand  0.206279 6.004 35.9161
RightShoulder  0.69349 0.153159 12.2458
RightArm  -60.2186 -9.838 18.1841
RightForeArm  40.8928 77.7298 96.6567
RightHand  -2.24712 1.397 -37.3787
LeftUpLeg  -19.6269 32.4749 4.50874
LeftLeg  44.5689 5.77947 6.50623
LeftFoot  -16.6834 -0.371614 -10.1105
LeftToes  -4.0021e-011 8.38769e-011 -3.99229e-011
426
root  -5.50296 38.8054 1.76524 173.073 -87.0801 -173.675
RightUpLeg  -19.7624 -30.0543 -2.63239
RightLeg  38.8396 -15.9449 -13.5881
RightFoot  -13.328 0.0285296 6.22732
RightToes  -1.33073e-015 0 -3.6325e-017
Spine  20.4466 1.07841 -0.237849
Spine1  -16.4199 0.984347 1.55565
HEad  -6.9979 7.65308 -1.54956
LeftShoulder1  0.748727 0.0991192 -15.4029
LeftArm  -50.2551 5.03443 -24.0819
LeftForeArm  71.2238 -74.3396 -129.093
LeftHand  0.237697 6.10633 35.8173
RightShoulder  1.00327 1.02931 15.5288
RightArm  -57.8841 -13.1878 20.7089
RightForeArm  35.825 77.7126 94.2619
RightHand  -2.18308 1.2219 -37.2771
LeftUpLeg  -14.8295 31.4992 4.26534
LeftLeg  32.0674 8.05547 5.80343
LeftFoot  -9.92884 0.199835 -11.1439
LeftToes  -4.0021e-011 8.38769e-011 -3.99229e-011
427
root  -5.7716 39.855 1.81314 169.297 -87.0303 -168.478
RightUpLeg  -16.3383 -28.2272 -0.786066
RightLeg  29.7068 -19.2739 -11.7123
RightFoot  -14.0918 0.118173 9.50841
RightToes  -1.33073e-015 0 -3.6325e-017
Spine  16.4427 1.49578 -0.410159
Spine1  -15.1053 1.35688 1.83194
HEad  -5.96039 6.77437 -1.26948
LeftShoulder1  0.784302 -0.144022 -14.6
LeftArm  -49.4548 4.223 -24.878
LeftForeArm  62.2168 -75.4008 -123.051
LeftHand  0.108897 5.72089 33.6583
RightShoulder  0.890478 0.614335 14.8402
RightArm  -59.0871 -13.5855 22.6054
RightForeArm  31.3467 77.7015 91.8134
RightHand  -2.05225 1.12339 -35.6832
LeftUpLeg  -11.8153 29.8005 3.90406
LeftLeg  23.2872 10.0923 5.04914
LeftFoot  -4.2331 0.773982 -12.0723
LeftToes  -4.0021e-011 8.38769e-011 -3.99229e-011
428
root  -5.8799 40.3161 1.85774 168.999 -87.5413 -167.095
RightUpLeg  -13.7873 -24.7255 0.460906
RightLeg  23.3526 -24.0792 -11.0724
RightFoot  -9.32075 -0.230759 10.502
RightToes  -1.33073e-015 0 -3.6325e-017
Spine  14.1455 1.3692 -0.446558
Spine1  -14.76 1.29069 0.913569
HEad  -5.60437 5.88146 -1.09712
LeftShoulder1  0.552857 0.376426 -10.33
LeftArm  -51.4446 -0.733899 -22.5657
LeftForeArm  51.0419 -76.606 -113.35
LeftHand  -0.258448 4.37679 29.5289
RightShoulder  0.645714 -0.177596 12.4447
RightArm  -61.8568 -10.3542 21.0532
RightForeArm  27.69 77.7084 87.8507
RightHand  -1.90714 1.14577 -33.1964
LeftUpLeg  -10.2761 24.5659 3.30426
LeftLeg  17.9884 15.6527 4.96116
LeftFoot  -1.23794 1.0466 -11.7525
LeftToes  -4.0021e-011 8.38769e-011 -3.99229e-011
429
root  -5.87939 40.3975 1.93811 169.186 -88.4186 -166.663
RightUpLeg  -11.2486 -18.6391 0.743476
RightLeg  18.2415 -30.8379 -10.0973
RightFoot  -2.72985 -0.604802 7.80645
RightToes  -1.33073e-015 0 -3.6325e-017
Spine  13.6555 0.955685 -0.634233
Spine1  -15.6868 0.899804 0.534568
HEad  -4.64115 5.26138 -1.20766
LeftShoulder1  0.263921 1.45284 -4.85705
LeftArm  -55.9193 -7.48284 -18.237
LeftForeArm  29.8428 -77.6313 -91.8983
LeftHand  -0.473691 3.35692 26.6909
RightShoulder  0.436974 -0.81274 8.89476
RightArm  -65.0251 -4.92184 16.243
RightForeArm  16.4678 77.322 75.4661
RightHand  -1.77408 1.21248 -30.7179
LeftUpLeg  -8.81325 14.3951 2.93653
LeftLeg  14.2384 26.8705 4.95981
LeftFoot  -0.897263 0.903675 -9.77104
LeftToes  -4.0021e-011 8.38769e-011 -3.99229e-011
430
root  -5.81747 40.242 2.03804 160.54 -89.2713 -158.135
RightUpLeg  -8.95695 -11.0616 0.0941265
RightLeg  15.2433 -38.1962 -8.85753
RightFoot  -0.730934 -0.453042 4.72714
RightToes  -1.33073e-015 0 -3.6325e-017
Spine  14.0641 0.60613 -1.16607
Spine1  -15.935 0.475437 1.19094
HEad  -3.77328 4.88309 -2.12939
LeftShoulder1  0.028832 3.17652 0.646081
LeftArm  -61.7797 -14.1132 -13.8228
LeftForeArm  -0.389785 -75.8089 -59.9258
LeftHand  -0.528989 3.13453 26.9312
RightShoulder  0.229817 -1.62069 4.16551
RightArm  -68.8102 1.29606 10.895
RightForeArm  -3.0465 75.0855 55.009
RightHand  -1.74996 1.46753 -29.2481
LeftUpLeg  -8.01329 9.72119 1.89869
LeftLeg  12.373 32.3416 5.56103
LeftFoot  -2.26357 0.614564 -7.5632
LeftToes  -4.0021e-011 8.38769e-011 -3.99229e-011
431
root  -5.73537 40.0783 2.15563 127.838 -89.6198 -125.916
RightUpLeg  -8.63587 -10.85 0.0943922
RightLeg  15.513 -38.0927 -9.2498
RightFoot  -2.20289 -0.36809 4.44252
RightToes  -1.33073e-015 0 -3.6325e-017
Spine  14.2819 0.489916 -1.50657
Spine1  -14.4949 0.257742 2.06041
HEad  -3.96776 4.58553 -3.79119
LeftShoulder1  -0.0690875 5.19115 5.12245
LeftArm  -67.6589 -19.0722 -10.2681
LeftForeArm  -18.5987 -71.0791 -39.3116
LeftHand  -0.574621 3.01873 27.858
RightShoulder  0.0547213 -2.84095 -0.133776
RightArm  -73.089 6.87301 6.47168
RightForeArm  -18.2055 70.6976 38.4249
RightHand  -1.81714 1.96078 -28.3751
LeftUpLeg  -8.10663 9.6282 1.56914
LeftLeg  13.3645 32.109 6.3495
LeftFoot  -3.65512 0.472836 -6.73004
LeftToes  -4.0021e-011 8.38769e-011 -3.99229e-011
432
root  -5.71118 40.0188 2.28047 121.394 -89.5513 -119.73
RightUpLeg  -9.3245 -13.9501 -0.0148215
RightLeg  17.0418 -34.76 -10.0028
RightFoot  -2.70004 -0.430423 5.42956
RightToes  -1.33073e-015 0 -3.6325e-017
Spine  13.8367 0.573833 -1.69632
Spine1  -12.872 0.281949 2.36882
HEad  -4.41096 4.29848 -5.19747
LeftShoulder1  -0.0515942 6.32086 7.6979
LeftArm  -71.626 -21.1875 -8.18029
LeftForeArm  -23.5167 -68.0362 -32.6423
LeftHand  -0.616916 2.8068 27.447
RightShoulder  -0.0143884 -3.70999 -2.35452
RightArm  -76.0999 10.0836 3.40553
RightForeArm  -24.1495 67.0402 30.8929
RightHand  -1.82321 2.21837 -27.5437
LeftUpLeg  -8.68302 10.8589 1.64212
LeftLeg  15.2264 30.1388 6.81187
LeftFoot  -4.1304 0.46916 -7.04316
LeftToes  -4.0021e-011 8.38769e-011 -3.99229e-011
433
root  -5.7937 40.1063 2.40909 146.351 -89.3465 -144.8
RightUpLeg  -8.74424 -13.5637 -0.448011
RightLeg  16.187 -34.9027 -9.31497
RightFoot  -1.06927 -0.503391 5.53126
RightToes  -1.33073e-015 0 -3.6325e-017
Spine  13.2909 0.734743 -1.5025
Spine1  -12.751 0.48213 2.06754
HEad  -3.49829 4.09128 -5.51043
LeftShoulder1  -0.0226077 5.82766 8.53997
LeftArm  -72.3913 -21.0818 -7.59679
LeftForeArm  -22.6189 -68.0487 -32.7142
LeftHand  -0.634006 2.67082 26.8066
RightShoulder  0.00252345 -3.47797 -2.83051
RightArm  -76.1823 10.5013 2.33016
RightForeArm  -24.3874 66.437 30.0028
RightHand  -1.76113 2.05052 -27.2232
LeftUpLeg  -8.0572 10.5108 1.56462
LeftLeg  14.5207 30.7015 6.46135
LeftFoot  -3.57795 0.510982 -7.21449
LeftToes  -4.0021e-011 8.38769e-011 -3.99229e-011
434
root  -5.91983 40.3075 2.54679 156.437 -88.8556 -155.223
RightUpLeg  -6.31594 -8.88674 -0.930948
RightLeg  12.3518 -39.359 -7.03506
RightFoot  0.620704 -0.517513 4.97167
RightToes  -1.33073e-015 0 -3.6325e-017
Spine  13.255 0.909287 -0.695411
Spine1  -14.0229 0.771119 1.42117
HEad  -0.998878 4.0442 -5.07004
LeftShoulder1  -0.01275 4.6538 8.36158
LeftArm  -70.9307 -20.6612 -7.53614
LeftForeArm  -20.3718 -68.9717 -34.4127
LeftHand  -0.651063 2.61973 27.0165
RightShoulder  0.0494313 -2.70113 -2.74761
RightArm  -74.4306 9.93752 2.84109
RightForeArm  -21.9109 67.7939 32.2066
RightHand  -1.73511 1.83795 -27.5866
LeftUpLeg  -5.61126 8.52025 1.34925
LeftLeg  10.4551 33.8628 5.11526
LeftFoot  -2.24527 0.551881 -6.77083
LeftToes  -4.0021e-011 8.38769e-011 -3.99229e-011
435
root  -6.03576 40.4837 2.68671 159.883 -88.0836 -158.862
RightUpLeg  -4.16329 -5.70241 -0.738172
RightLeg  7.87536 -42.1343 -4.749
RightFoot  1.48424 -0.538615 4.87577
RightToes  -1.33073e-015 0 -3.6325e-017
Spine  13.2705 1.12638 0.295649
Spine1  -15.2682 1.1044 0.737131
HEad  1.78662 4.23929 -4.78035
LeftShoulder1  -0.0138185 4.41343 7.95681
LeftArm  -69.1836 -21.1001 -7.85137
LeftForeArm  -19.0727 -69.3805 -35.2082
LeftHand  -0.673659 2.55454 27.3116
RightShoulder  0.0636657 -2.47365 -2.68605
RightArm  -73.1213 10.4485 3.81808
RightForeArm  -19.0399 68.9207 34.2212
RightHand  -1.74546 1.8049 -27.8664
LeftUpLeg  -3.07108 7.51044 1.00393
LeftLeg  5.54136 35.9818 3.31862
LeftFoot  -0.830567 0.589792 -6.34986
LeftToes  -4.0021e-011 8.38769e-011 -3.99229e-011
436
root  -6.15502 40.5683 2.81441 163.78 -87.1911 -162.19
RightUpLeg  -3.71517 -5.0559 -0.545892
RightLeg  5.25183 -42.0822 -3.36062
RightFoot  2.3034 -0.590594 5.06516
RightToes  -1.33073e-015 0 -3.6325e-017
Spine  12.3741 1.38342 0.905593
Spine1  -15.3649 1.41851 0.362943
HEad  3.59951 4.68132 -4.8967
LeftShoulder1  -0.029765 5.30353 7.77234
LeftArm  -68.241 -21.8033 -9.00092
LeftForeArm  -18.2711 -69.744 -35.988
LeftHand  -0.659449 2.61132 27.2813
RightShoulder  0.0377811 -2.90412 -2.60978
RightArm  -72.9202 11.914 4.67218
RightForeArm  -17.3073 69.4334 35.2098
RightHand  -1.73958 1.80655 -27.7705
LeftUpLeg  -2.14701 7.13314 0.750005
LeftLeg  2.44032 37.1762 1.96176
LeftFoot  -0.0236185 0.621858 -6.27167
LeftToes  -4.0021e-011 8.38769e-011 -3.99229e-011
437
root  -6.2857 40.5847 2.90918 166.114 -86.6069 -163.595
RightUpLeg  -4.14996 -4.88019 -0.537328
RightLeg  4.0457 -41.6082 -2.56688
RightFoot  3.19314 -0.614898 4.99011
RightToes  -1.33073e-015 0 -3.6325e-017
Spine  10.7075 1.54665 0.985672
Spine1  -14.4256 1.56221 0.525459
HEad  4.25638 5.14903 -5.01254
LeftShoulder1  -0.0487542 6.11806 7.53029
LeftArm  -68.0039 -21.6732 -10.4484
LeftForeArm  -16.7525 -70.6557 -38.1638
LeftHand  -0.608516 2.82844 27.3036
RightShoulder  0.0185347 -3.22175 -2.46713
RightArm  -72.9816 12.6733 5.46113
RightForeArm  -15.7362 70.165 36.829
RightHand  -1.74854 1.83797 -27.791
LeftUpLeg  -2.47522 7.0521 0.5633
LeftLeg  1.19009 38.1602 1.22831
LeftFoot  0.144685 0.600475 -5.97706
LeftToes  -4.0021e-011 8.38769e-011 -3.99229e-011
